<!--
Licensed to the Apache Software Foundation (ASF) under one
or more contributor license agreements.  See the NOTICE file
distributed with this work for additional information
regarding copyright ownership.  The ASF licenses this file
to you under the Apache License, Version 2.0 (the
"License"); you may not use this file except in compliance
with the License.  You may obtain a copy of the License at

  http://www.apache.org/licenses/LICENSE-2.0

Unless required by applicable law or agreed to in writing,
software distributed under the License is distributed on an
"AS IS" BASIS, WITHOUT WARRANTIES OR CONDITIONS OF ANY
KIND, either express or implied.  See the License for the
specific language governing permissions and limitations
under the License.
-->
<svg width="126" height="44" viewBox="0 0 126 44" fill="none" xmlns="http://www.w3.org/2000/svg">
<rect width="125.49" height="44" rx="6" fill="white"/>
<path fill-rule="evenodd" clip-rule="evenodd" d="M8 14.4C8 12.1598 8 11.0397 8.43597 10.184C8.81947 9.43139 9.43139 8.81947 10.184 8.43597C11.0397 8 12.1598 8 14.4 8H29.6C31.8402 8 32.9603 8 33.816 8.43597C34.5686 8.81947 35.1805 9.43139 35.564 10.184C36 11.0397 36 12.1598 36 14.4V24.0892C36 26.9608 36 28.3967 35.5628 29.6643C35.1761 30.7853 34.5451 31.8063 33.7153 32.6535C32.7771 33.6115 31.4928 34.2536 28.9244 35.5378L28 36V32H14.4C12.1598 32 11.0397 32 10.184 31.564C9.43139 31.1805 8.81947 30.5686 8.43597 29.816C8 28.9603 8 27.8402 8 25.6V14.4ZM28 20C28 23.3137 25.3137 26 22 26C18.6954 26 16.0148 23.3285 16.0001 20.0274V20H28Z" fill="#0033FF"/>
<path d="M43.98 29.5L49.52 15.5H52.4L57.9 29.5H54.46L51.82 22.4C51.7133 22.12 51.6066 21.82 51.5 21.5C51.3933 21.18 51.2866 20.8533 51.18 20.52C51.0733 20.1733 50.9666 19.84 50.86 19.52C50.7666 19.1867 50.6866 18.88 50.62 18.6L51.22 18.58C51.14 18.9133 51.0466 19.24 50.94 19.56C50.8466 19.88 50.7466 20.2 50.64 20.52C50.5466 20.8267 50.44 21.14 50.32 21.46C50.2 21.7667 50.0866 22.0867 49.98 22.42L47.34 29.5H43.98ZM46.62 26.82L47.68 24.26H54.12L55.16 26.82H46.62Z" fill="#212529"/>
<path d="M59.3067 29.5V18.88H62.3467L62.4467 21.04L61.8067 21.28C61.9534 20.8 62.2134 20.3667 62.5867 19.98C62.9734 19.58 63.4334 19.26 63.9667 19.02C64.5 18.78 65.06 18.66 65.6467 18.66C66.4467 18.66 67.12 18.8267 67.6667 19.16C68.2134 19.48 68.6267 19.9667 68.9067 20.62C69.1867 21.26 69.3267 22.0467 69.3267 22.98V29.5H66.1067V23.24C66.1067 22.8133 66.0467 22.46 65.9267 22.18C65.8067 21.9 65.62 21.6933 65.3667 21.56C65.1267 21.4133 64.8267 21.3467 64.4667 21.36C64.1867 21.36 63.9267 21.4067 63.6867 21.5C63.4467 21.58 63.24 21.7067 63.0667 21.88C62.8934 22.04 62.7534 22.2267 62.6467 22.44C62.5534 22.6533 62.5067 22.8867 62.5067 23.14V29.5H60.9267C60.5534 29.5 60.2334 29.5 59.9667 29.5C59.7 29.5 59.48 29.5 59.3067 29.5Z" fill="#212529"/>
<path d="M75.582 29.7C74.542 29.7 73.622 29.5333 72.822 29.2C72.0353 28.8667 71.4087 28.42 70.942 27.86L72.882 26.18C73.2953 26.5933 73.762 26.9 74.282 27.1C74.802 27.2867 75.2953 27.38 75.762 27.38C75.9487 27.38 76.1153 27.36 76.262 27.32C76.4087 27.28 76.5287 27.2267 76.622 27.16C76.7287 27.08 76.8087 26.9933 76.862 26.9C76.9153 26.7933 76.942 26.6733 76.942 26.54C76.942 26.2733 76.822 26.0667 76.582 25.92C76.462 25.8533 76.262 25.7733 75.982 25.68C75.702 25.5867 75.342 25.48 74.902 25.36C74.2753 25.2 73.7287 25.0133 73.262 24.8C72.8087 24.5733 72.4353 24.3133 72.142 24.02C71.8753 23.74 71.6687 23.4333 71.522 23.1C71.3753 22.7533 71.302 22.3667 71.302 21.94C71.302 21.4467 71.4153 21 71.642 20.6C71.882 20.2 72.1953 19.8533 72.582 19.56C72.982 19.2667 73.4353 19.0467 73.942 18.9C74.462 18.74 74.9953 18.66 75.542 18.66C76.1287 18.66 76.6887 18.7267 77.222 18.86C77.7553 18.9933 78.2487 19.18 78.702 19.42C79.1687 19.66 79.582 19.9467 79.942 20.28L78.262 22.16C78.022 21.9333 77.7487 21.7333 77.442 21.56C77.1487 21.3733 76.842 21.2267 76.522 21.12C76.202 21.0133 75.9087 20.96 75.642 20.96C75.442 20.96 75.262 20.98 75.102 21.02C74.9553 21.0467 74.8287 21.1 74.722 21.18C74.6153 21.2467 74.5353 21.3333 74.482 21.44C74.4287 21.5333 74.402 21.6467 74.402 21.78C74.402 21.9133 74.4353 22.04 74.502 22.16C74.582 22.28 74.6887 22.38 74.822 22.46C74.9553 22.54 75.1687 22.6333 75.462 22.74C75.7553 22.8333 76.1553 22.9533 76.662 23.1C77.2887 23.2733 77.8287 23.4667 78.282 23.68C78.7353 23.8933 79.0953 24.1467 79.362 24.44C79.5753 24.6667 79.7353 24.9333 79.842 25.24C79.9487 25.5333 80.002 25.8533 80.002 26.2C80.002 26.88 79.8087 27.4867 79.422 28.02C79.0487 28.54 78.5287 28.9533 77.862 29.26C77.1953 29.5533 76.4353 29.7 75.582 29.7Z" fill="#212529"/>
<path d="M84.2244 29.5L80.7244 18.88H84.1044L86.0644 25.78L85.6444 25.7L87.8444 20.34H89.7244L92.0444 25.72L91.5844 25.76L93.5444 18.88H96.9244L93.3044 29.5H90.9444L88.6444 23.8L88.8844 23.84L86.5844 29.5H84.2244Z" fill="#212529"/>
<path d="M103.351 29.7C102.178 29.7 101.158 29.4667 100.291 29C99.4244 28.52 98.7511 27.8733 98.2711 27.06C97.7911 26.2333 97.5511 25.2933 97.5511 24.24C97.5511 23.4267 97.6844 22.68 97.9511 22C98.2177 21.32 98.5911 20.7333 99.0711 20.24C99.5511 19.7333 100.118 19.3467 100.771 19.08C101.438 18.8 102.164 18.66 102.951 18.66C103.698 18.66 104.378 18.7933 104.991 19.06C105.618 19.3267 106.158 19.7 106.611 20.18C107.064 20.66 107.411 21.2267 107.651 21.88C107.891 22.5333 107.998 23.2467 107.971 24.02L107.951 24.88H99.4911L99.0311 23.08H105.351L105.011 23.46V23.06C104.984 22.7267 104.878 22.4333 104.691 22.18C104.518 21.9133 104.284 21.7067 103.991 21.56C103.698 21.4133 103.364 21.34 102.991 21.34C102.471 21.34 102.024 21.4467 101.651 21.66C101.291 21.86 101.018 22.16 100.831 22.56C100.644 22.9467 100.551 23.4267 100.551 24C100.551 24.5867 100.671 25.1 100.911 25.54C101.164 25.9667 101.524 26.3 101.991 26.54C102.471 26.78 103.038 26.9 103.691 26.9C104.144 26.9 104.544 26.8333 104.891 26.7C105.251 26.5667 105.638 26.34 106.051 26.02L107.551 28.14C107.138 28.5 106.698 28.7933 106.231 29.02C105.764 29.2467 105.284 29.4133 104.791 29.52C104.311 29.64 103.831 29.7 103.351 29.7Z" fill="#212529"/>
<path d="M110.01 29.5V18.88H113.05L113.19 22.34L112.59 21.68C112.75 21.1067 113.01 20.5933 113.37 20.14C113.743 19.6867 114.176 19.3267 114.67 19.06C115.163 18.7933 115.69 18.66 116.25 18.66C116.49 18.66 116.71 18.68 116.91 18.72C117.123 18.76 117.316 18.8067 117.49 18.86L116.61 22.4C116.463 22.3067 116.263 22.2333 116.01 22.18C115.77 22.1133 115.516 22.08 115.25 22.08C114.956 22.08 114.683 22.1333 114.43 22.24C114.176 22.3333 113.963 22.4733 113.79 22.66C113.616 22.8467 113.476 23.0667 113.37 23.32C113.276 23.5733 113.23 23.86 113.23 24.18V29.5H110.01Z" fill="#212529"/>
</svg>
