<svg width="24" height="24" viewBox="0 0 24 24" fill="none" xmlns="http://www.w3.org/2000/svg">
<rect width="24" height="24" rx="3" fill="white" fill-opacity="0.01"/>
<path d="M4.125 6.9375C4.125 6.22656 4.69922 5.625 5.4375 5.625H8.0625C8.77344 5.625 9.375 6.22656 9.375 6.9375V7.375H14.625V6.9375C14.625 6.22656 15.1992 5.625 15.9375 5.625H18.5625C19.2734 5.625 19.875 6.22656 19.875 6.9375V9.5625C19.875 10.3008 19.2734 10.875 18.5625 10.875H15.9375C15.1992 10.875 14.625 10.3008 14.625 9.5625V9.125H9.375V9.5625C9.375 9.61719 9.34766 9.67188 9.34766 9.69922L11.5625 12.625H14.1875C14.8984 12.625 15.5 13.2266 15.5 13.9375V16.5625C15.5 17.3008 14.8984 17.875 14.1875 17.875H11.5625C10.8242 17.875 10.25 17.3008 10.25 16.5625V13.9375C10.25 13.9102 10.25 13.8555 10.25 13.8008L8.0625 10.875H5.4375C4.69922 10.875 4.125 10.3008 4.125 9.5625V6.9375Z" fill="#495057"/>
</svg>
