<svg width="20" height="20" viewBox="0 0 20 20" fill="none" xmlns="http://www.w3.org/2000/svg">
<path d="M3.59125 14.1212V5.17749H2.12375L0 6.72374V8.14499L2.05 6.66999H2.125V14.1212H3.5925H3.59125ZM7.6075 7.75874V7.67999C7.6075 6.90749 8.1575 6.21874 9.1025 6.21874C9.9475 6.21874 10.57 6.76874 10.57 7.60124C10.57 8.38124 10.045 8.97749 9.56125 9.50874L6.2375 13.1912V14.1212H12.2125V12.8837H8.30375V12.7975L10.5125 10.315C11.325 9.40999 12.0588 8.64999 12.0588 7.47749C12.0575 6.06124 10.9038 4.99999 9.135 4.99999C7.16875 4.99999 6.185 6.32999 6.185 7.68749V7.75874H7.6075ZM15.8063 10.1125H16.7887C17.8175 10.1125 18.5063 10.7137 18.5125 11.5862C18.525 12.47 17.825 13.1062 16.7362 13.0987C15.7738 13.0925 15.0788 12.575 15.0125 11.9075H13.6438C13.6962 13.2237 14.8162 14.305 16.7237 14.305C18.5712 14.305 20.0262 13.2562 19.9987 11.625C19.9737 10.1962 18.8463 9.56124 18.06 9.48249V9.40374C18.7288 9.29124 19.7437 8.57874 19.7175 7.30624C19.685 5.98999 18.5513 4.98749 16.7687 4.99999C14.8938 5.00624 13.8725 6.09999 13.8338 7.37249H15.2287C15.2687 6.74999 15.8512 6.19249 16.7362 6.19249C17.615 6.19249 18.2437 6.73624 18.2437 7.52999C18.25 8.32999 17.6138 8.91249 16.7438 8.91249H15.8063V10.1125Z" fill="black"/>
</svg>
